<svg width="34" height="35" viewBox="0 0 34 35" fill="none" xmlns="http://www.w3.org/2000/svg">
<g clip-path="url(#clip0_207_855)">
<path d="M16.6211 29.605C16.8012 29.8301 17.1437 29.8301 17.3238 29.605L24.905 20.1285C25.1408 19.8338 24.931 19.3973 24.5536 19.3973L22.0112 19.3973C21.597 19.3973 21.2612 19.0616 21.2612 18.6473V10.3968C21.2612 10.1483 21.0598 9.94682 20.8112 9.94682L13.1333 9.94682C12.8847 9.94682 12.6833 10.1483 12.6833 10.3968L12.6833 18.6473C12.6833 19.0616 12.3475 19.3973 11.9333 19.3973H9.39125C9.01392 19.3973 8.80414 19.8338 9.03986 20.1285L16.6211 29.605ZM18.4951 30.542C17.7145 31.5178 16.2304 31.5178 15.4498 30.542L7.86855 21.0655C6.84712 19.7887 7.75616 17.8973 9.39125 17.8973H11.1833V10.3968C11.1833 9.31987 12.0563 8.44682 13.1333 8.44682L20.8112 8.44682C21.8882 8.44682 22.7612 9.31987 22.7612 10.3968L22.7612 17.8973H24.5536C26.1887 17.8973 27.0978 19.7887 26.0763 21.0655L18.4951 30.542Z" fill="#212121"/>
</g>
<defs>
<clipPath id="clip0_207_855">
<rect width="24" height="24" fill="white" transform="translate(33.9414 17.9412) rotate(135)"/>
</clipPath>
</defs>
</svg>
