<svg width="34" height="35" viewBox="0 0 34 35" fill="none" xmlns="http://www.w3.org/2000/svg">
<g clip-path="url(#clip0_207_680)">
<path d="M16.6211 29.6052C16.8012 29.8304 17.1437 29.8304 17.3238 29.6052L24.905 20.1287C25.1408 19.8341 24.931 19.3976 24.5536 19.3976L22.0112 19.3976C21.597 19.3976 21.2612 19.0618 21.2612 18.6476V10.3971C21.2612 10.1485 21.0598 9.94707 20.8112 9.94707L13.1333 9.94707C12.8847 9.94707 12.6833 10.1485 12.6833 10.3971L12.6833 18.6476C12.6833 19.0618 12.3475 19.3976 11.9333 19.3976H9.39125C9.01392 19.3976 8.80414 19.8341 9.03986 20.1287L16.6211 29.6052ZM18.4951 30.5423C17.7145 31.518 16.2304 31.518 15.4498 30.5423L7.86855 21.0657C6.84712 19.789 7.75616 17.8976 9.39125 17.8976H11.1833V10.3971C11.1833 9.32011 12.0563 8.44707 13.1333 8.44707L20.8112 8.44707C21.8882 8.44707 22.7612 9.32011 22.7612 10.3971L22.7612 17.8976H24.5536C26.1887 17.8976 27.0978 19.789 26.0763 21.0657L18.4951 30.5423Z" fill="#212121"/>
</g>
<defs>
<clipPath id="clip0_207_680">
<rect width="24" height="24" fill="white" transform="translate(33.9414 17.9414) rotate(135)"/>
</clipPath>
</defs>
</svg>
