<svg width="34" height="34" viewBox="0 0 34 34" fill="none" xmlns="http://www.w3.org/2000/svg">
<g clip-path="url(#clip0_207_678)">
<path d="M17.3496 5.3069C17.1695 5.08172 16.827 5.08172 16.6469 5.3069L9.06566 14.7834C8.82995 15.078 9.03972 15.5145 9.41706 15.5145L11.9595 15.5145C12.3737 15.5145 12.7095 15.8503 12.7095 16.2645V24.515C12.7095 24.7636 12.9109 24.965 13.1595 24.965L20.8374 24.965C21.086 24.965 21.2874 24.7636 21.2874 24.515L21.2874 16.2645C21.2874 15.8503 21.6232 15.5145 22.0374 15.5145H24.5795C24.9568 15.5145 25.1666 15.078 24.9308 14.7834L17.3496 5.3069ZM15.4756 4.36986C16.2562 3.39407 17.7403 3.39406 18.521 4.36986L26.1022 13.8464C27.1236 15.1232 26.2145 17.0145 24.5795 17.0145H22.7874V24.515C22.7874 25.592 21.9144 26.465 20.8374 26.465L13.1595 26.465C12.0825 26.465 11.2095 25.592 11.2095 24.515L11.2095 17.0145H9.41706C7.78197 17.0145 6.87293 15.1232 7.89436 13.8464L15.4756 4.36986Z" fill="#212121"/>
</g>
<defs>
<clipPath id="clip0_207_678">
<rect width="24" height="24" fill="white" transform="translate(0.0292969 16.9707) rotate(-45)"/>
</clipPath>
</defs>
</svg>
