<svg width="1928" height="188" viewBox="0 0 1928 188" fill="none" xmlns="http://www.w3.org/2000/svg">
<g filter="url(#filter0_d_2_2898)">
<path fill-rule="evenodd" clip-rule="evenodd" d="M4 19.3223L83.5 25.3593C164.5 31.3963 323.5 43.4704 484 63.9034C644.5 84.8009 803.5 114.522 964 120.559C1124.5 126.596 1283.5 108.485 1444 102.912C1604.5 96.8749 1763.5 102.912 1844.5 105.698L1924 108.485V180H1844.5C1763.5 180 1604.5 180 1444 180C1283.5 180 1124.5 180 964 180C803.5 180 644.5 180 484 180C323.5 180 164.5 180 83.5 180H4V19.3223Z" fill="#783232" fill-opacity="0.5"/>
<path fill-rule="evenodd" clip-rule="evenodd" d="M4 72L68 86.4C132 100.8 260 129.6 388 122.4C516 115.2 644 72 772 43.2C900 14.4 1028 0 1156 0C1284 0 1412 14.4 1540 39.6C1668 64.8 1796 100.8 1860 118.8L1924 136.8V180H1860C1796 180 1668 180 1540 180C1412 180 1284 180 1156 180C1028 180 900 180 772 180C644 180 516 180 388 180C260 180 132 180 68 180H4V72Z" fill="#783232" fill-opacity="0.6"/>
</g>
<defs>
<filter id="filter0_d_2_2898" x="0" y="0" width="1928" height="188" filterUnits="userSpaceOnUse" color-interpolation-filters="sRGB">
<feFlood flood-opacity="0" result="BackgroundImageFix"/>
<feColorMatrix in="SourceAlpha" type="matrix" values="0 0 0 0 0 0 0 0 0 0 0 0 0 0 0 0 0 0 127 0" result="hardAlpha"/>
<feOffset dy="4"/>
<feGaussianBlur stdDeviation="2"/>
<feComposite in2="hardAlpha" operator="out"/>
<feColorMatrix type="matrix" values="0 0 0 0 0 0 0 0 0 0 0 0 0 0 0 0 0 0 0.25 0"/>
<feBlend mode="normal" in2="BackgroundImageFix" result="effect1_dropShadow_2_2898"/>
<feBlend mode="normal" in="SourceGraphic" in2="effect1_dropShadow_2_2898" result="shape"/>
</filter>
</defs>
</svg>
