<svg width="24" height="25" viewBox="0 0 24 25" fill="none" xmlns="http://www.w3.org/2000/svg">
<path d="M5.25 18.5C3.45507 18.5 2 17.0449 2 15.25V6.75C2 4.95507 3.45507 3.5 5.25 3.5H18.75C20.5449 3.5 22 4.95507 22 6.75V15.25C22 17.0449 20.5449 18.5 18.75 18.5H13.0125L7.99868 22.2507C7.44585 22.6642 6.6625 22.5512 6.24901 21.9984C6.08736 21.7822 6 21.5196 6 21.2499L5.99921 18.5H5.25ZM12.5135 17H18.75C19.7165 17 20.5 16.2165 20.5 15.25V6.75C20.5 5.7835 19.7165 5 18.75 5H5.25C4.2835 5 3.5 5.7835 3.5 6.75V15.25C3.5 16.2165 4.2835 17 5.25 17H7.49879L7.499 17.7498L7.49986 20.7506L12.5135 17Z" fill="#212121"/>
</svg>
