<svg width="25" height="25" viewBox="0 0 25 25" fill="none" xmlns="http://www.w3.org/2000/svg">
<path d="M3.3418 4.24805C3.3418 3.83383 3.67758 3.49805 4.0918 3.49805H20.5959C21.214 3.49805 21.5667 4.20369 21.1959 4.69811L17.0316 10.2493L21.1959 15.8004C21.5667 16.2948 21.214 17.0005 20.5959 17.0005L4.8418 17V21.7499C4.8418 22.1296 4.55964 22.4434 4.19357 22.493L4.0918 22.4999C3.7121 22.4999 3.39831 22.2177 3.34864 21.8517L3.3418 21.7499V4.24805ZM19.0957 4.99805H4.8418V15.5005H19.0957L15.494 10.6993C15.294 10.4326 15.294 10.0659 15.494 9.79921L19.0957 4.99805Z" fill="#212121"/>
</svg>
