<svg width="25" height="24" viewBox="0 0 25 24" fill="none" xmlns="http://www.w3.org/2000/svg">
<rect width="24" height="24" transform="translate(0.921875)" fill="white"/>
<path fill-rule="evenodd" clip-rule="evenodd" d="M23.9619 12.2615C23.9619 11.446 23.8887 10.6619 23.7528 9.90918H12.9219V14.3576H19.111C18.8444 15.7951 18.0341 17.013 16.8162 17.8285V20.714H20.5328C22.7073 18.7119 23.9619 15.7637 23.9619 12.2615Z" fill="#4285F4"/>
<path fill-rule="evenodd" clip-rule="evenodd" d="M12.9213 23.5001C16.0263 23.5001 18.6295 22.4703 20.5323 20.7139L16.8157 17.8285C15.7859 18.5185 14.4686 18.9262 12.9213 18.9262C9.92612 18.9262 7.39089 16.9032 6.48658 14.1851H2.64453V17.1646C4.5368 20.923 8.4259 23.5001 12.9213 23.5001Z" fill="#34A853"/>
<path fill-rule="evenodd" clip-rule="evenodd" d="M6.4871 14.185C6.2571 13.495 6.12642 12.7579 6.12642 12C6.12642 11.242 6.2571 10.505 6.4871 9.81499V6.83545H2.64506C1.86619 8.38795 1.42188 10.1443 1.42188 12C1.42188 13.8557 1.86619 15.612 2.64506 17.1645L6.4871 14.185Z" fill="#FBBC05"/>
<path fill-rule="evenodd" clip-rule="evenodd" d="M12.9214 5.07386C14.6098 5.07386 16.1257 5.65409 17.3175 6.79364L20.6159 3.49523C18.6243 1.63955 16.0211 0.5 12.9214 0.5C8.4259 0.5 4.5368 3.07705 2.64453 6.83545L6.48658 9.815C7.3909 7.09682 9.92612 5.07386 12.9214 5.07386Z" fill="#EA4335"/>
</svg>
