<svg width="29" height="28" viewBox="0 0 29 28" fill="none" xmlns="http://www.w3.org/2000/svg">
<path d="M12.3952 0.776621C13.6088 -0.254969 15.3912 -0.254966 16.6049 0.776623L26.3549 9.06408C27.0813 9.68158 27.5 10.5869 27.5 11.5404V24.4999C27.5 25.8806 26.3807 26.9999 25 26.9999H21C19.6193 26.9999 18.5 25.8806 18.5 24.4999V17.9999C18.5 16.8983 17.6093 16.0047 16.5088 15.9999H12.4912C11.3907 16.0047 10.5 16.8983 10.5 17.9999V24.4999C10.5 25.8806 9.38071 26.9999 8 26.9999H4C2.61929 26.9999 1.5 25.8806 1.5 24.4999V11.5404C1.5 10.5869 1.91868 9.68158 2.64515 9.06408L12.3952 0.776621Z" fill="#212121"/>
</svg>
