<svg width="29" height="28" viewBox="0 0 29 28" fill="none" xmlns="http://www.w3.org/2000/svg">
<path d="M12.3952 0.776743C13.6088 -0.254847 15.3912 -0.254844 16.6049 0.776745L26.3549 9.06421C27.0813 9.6817 27.5 10.5871 27.5 11.5405V24.5C27.5 25.8807 26.3807 27 25 27H21C19.6193 27 18.5 25.8807 18.5 24.5V18C18.5 16.8984 17.6093 16.0048 16.5088 16H12.4912C11.3907 16.0048 10.5 16.8984 10.5 18V24.5C10.5 25.8807 9.38071 27 8 27H4C2.61929 27 1.5 25.8807 1.5 24.5V11.5405C1.5 10.5871 1.91868 9.6817 2.64515 9.0642L12.3952 0.776743Z" fill="#212121"/>
</svg>
