<svg width="22" height="25" viewBox="0 0 22 25" fill="none" xmlns="http://www.w3.org/2000/svg">
<path d="M19.5447 17.2448L16.7229 10.1784C15.7673 7.78111 14.0093 7.68445 12.8283 9.96578L11.1244 13.2621C10.259 14.9344 8.64522 15.0794 7.52732 13.5811L7.32899 13.3104C6.16601 11.7444 4.52522 11.9378 3.6868 13.7261L2.13617 17.0611C1.04532 19.3811 2.62299 22.1168 5.0391 22.1168H16.5426C18.8866 22.1168 20.4643 19.5551 19.5447 17.2448ZM6.28321 8.58345C7.00051 8.58345 7.68844 8.27791 8.19565 7.73406C8.70285 7.1902 8.9878 6.45258 8.9878 5.68345C8.9878 4.91432 8.70285 4.17669 8.19565 3.63284C7.68844 3.08898 7.00051 2.78345 6.28321 2.78345C5.56591 2.78345 4.87798 3.08898 4.37077 3.63284C3.86356 4.17669 3.57862 4.91432 3.57862 5.68345C3.57862 6.45258 3.86356 7.1902 4.37077 7.73406C4.87798 8.27791 5.56591 8.58345 6.28321 8.58345Z" stroke="#783232" stroke-width="1.5" stroke-linecap="round" stroke-linejoin="round"/>
</svg>
