<svg width="21" height="21" viewBox="0 0 21 21" fill="none" xmlns="http://www.w3.org/2000/svg">
<path d="M10.5 15.5C13.2614 15.5 15.5 13.2614 15.5 10.5C15.5 7.73858 13.2614 5.5 10.5 5.5C7.73858 5.5 5.5 7.73858 5.5 10.5C5.5 13.2614 7.73858 15.5 10.5 15.5ZM10.5 2.5C6.08172 2.5 2.5 6.08172 2.5 10.5C2.5 14.9183 6.08172 18.5 10.5 18.5C14.9183 18.5 18.5 14.9183 18.5 10.5C18.5 6.08172 14.9183 2.5 10.5 2.5ZM3.5 10.5C3.5 6.63401 6.63401 3.5 10.5 3.5C14.366 3.5 17.5 6.63401 17.5 10.5C17.5 14.366 14.366 17.5 10.5 17.5C6.63401 17.5 3.5 14.366 3.5 10.5Z" fill="#212121"/>
</svg>
