<svg width="16" height="23" viewBox="0 0 16 23" fill="none" xmlns="http://www.w3.org/2000/svg">
<path d="M8.09896 10.6041C7.99479 10.5937 7.86979 10.5937 7.75521 10.6041C6.55959 10.5635 5.42671 10.0591 4.59649 9.19781C3.76627 8.33648 3.3039 7.18583 3.30729 5.98952C3.30729 3.43744 5.36979 1.36452 7.93229 1.36452C8.53897 1.35358 9.14187 1.46224 9.70655 1.68429C10.2712 1.90635 10.7867 2.23745 11.2234 2.6587C11.6601 3.07995 12.0096 3.58309 12.2519 4.1394C12.4941 4.69572 12.6245 5.2943 12.6354 5.90098C12.6464 6.50766 12.5377 7.11055 12.3156 7.67524C12.0936 8.23993 11.7625 8.75535 11.3412 9.19207C10.92 9.6288 10.4168 9.97828 9.86053 10.2206C9.30422 10.4628 8.70564 10.5932 8.09896 10.6041ZM2.89063 14.4479C0.369792 16.1354 0.369792 18.8854 2.89063 20.5624C5.75521 22.4791 10.4531 22.4791 13.3177 20.5624C15.8385 18.8749 15.8385 16.1249 13.3177 14.4479C10.4635 12.5416 5.76563 12.5416 2.89063 14.4479Z" fill="#162F55" stroke="#162F55" stroke-width="1.5" stroke-linecap="round" stroke-linejoin="round"/>
</svg>
