<svg width="16" height="23" viewBox="0 0 16 23" fill="none" xmlns="http://www.w3.org/2000/svg">
<path d="M8.09896 10.1041C7.99479 10.0937 7.86979 10.0937 7.75521 10.1041C6.55959 10.0635 5.42671 9.55914 4.59649 8.69781C3.76627 7.83648 3.3039 6.68583 3.30729 5.48952C3.30729 2.93744 5.36979 0.864521 7.93229 0.864521C8.53897 0.853578 9.14187 0.962236 9.70655 1.18429C10.2712 1.40635 10.7867 1.73745 11.2234 2.1587C11.6601 2.57995 12.0096 3.08309 12.2519 3.6394C12.4941 4.19572 12.6245 4.7943 12.6354 5.40098C12.6464 6.00766 12.5377 6.61055 12.3156 7.17524C12.0936 7.73993 11.7625 8.25535 11.3412 8.69207C10.92 9.1288 10.4168 9.47828 9.86053 9.72055C9.30422 9.96283 8.70564 10.0932 8.09896 10.1041ZM2.89063 13.9479C0.369792 15.6354 0.369792 18.3854 2.89063 20.0624C5.75521 21.9791 10.4531 21.9791 13.3177 20.0624C15.8385 18.3749 15.8385 15.6249 13.3177 13.9479C10.4635 12.0416 5.76563 12.0416 2.89063 13.9479Z" fill="#162F55" stroke="#162F55" stroke-width="1.5" stroke-linecap="round" stroke-linejoin="round"/>
</svg>
