<svg width="22" height="25" viewBox="0 0 22 25" fill="none" xmlns="http://www.w3.org/2000/svg">
<path d="M1.3523 0.850098C0.59501 0.850098 0 1.57924 0 2.50724C0 3.43524 0.59501 4.16438 1.3523 4.16438C2.10958 4.16438 2.70459 3.43524 2.70459 2.50724C2.70459 1.57924 2.10958 0.850098 1.3523 0.850098ZM5.40918 0.850098V4.16438H21.6367V0.850098H5.40918ZM1.3523 7.47867C0.59501 7.47867 0 8.20781 0 9.13581C0 10.0638 0.59501 10.793 1.3523 10.793C2.10958 10.793 2.70459 10.0638 2.70459 9.13581C2.70459 8.20781 2.10958 7.47867 1.3523 7.47867ZM5.40918 7.47867V10.793H21.6367V7.47867H5.40918ZM1.3523 14.1072C0.59501 14.1072 0 14.8364 0 15.7644C0 16.6924 0.59501 17.4215 1.3523 17.4215C2.10958 17.4215 2.70459 16.6924 2.70459 15.7644C2.70459 14.8364 2.10958 14.1072 1.3523 14.1072ZM5.40918 14.1072V17.4215H21.6367V14.1072H5.40918ZM1.3523 20.7358C0.59501 20.7358 0 21.465 0 22.393C0 23.321 0.59501 24.0501 1.3523 24.0501C2.10958 24.0501 2.70459 23.321 2.70459 22.393C2.70459 21.465 2.10958 20.7358 1.3523 20.7358ZM5.40918 20.7358V24.0501H21.6367V20.7358H5.40918Z" fill="#783232"/>
</svg>
