<svg width="26" height="27" viewBox="0 0 26 27" fill="none" xmlns="http://www.w3.org/2000/svg">
<path d="M13.9625 6.15494H4.62653M13.9625 6.15494C14.4518 6.15572 14.9362 6.25286 15.388 6.44079C15.8397 6.62872 16.25 6.90378 16.5955 7.25025C16.9409 7.59672 17.2147 8.00782 17.4012 8.46007C17.5877 8.91233 17.6833 9.39689 17.6825 9.88608V23.515C17.6825 25.2546 16.4345 25.9984 14.9105 25.1466L10.1945 22.5192C9.70253 22.2433 8.88653 22.2433 8.38253 22.5192M13.9625 6.15494C16.0145 6.15494 17.6945 7.83455 17.6945 9.88608M13.9625 6.15494H8.09453V5.23115C8.09453 3.17962 9.77453 1.5 11.8265 1.5H21.1625C23.2145 1.5 24.8945 3.17962 24.8945 5.23115V18.86C24.8945 20.5996 23.6465 21.3315 22.1225 20.4917L17.6945 18.0202V9.88608M4.62653 6.15494C3.63772 6.1581 2.69031 6.55222 1.9911 7.25126C1.2919 7.9503 0.897695 8.89749 0.894531 9.88608M4.62653 6.15494C2.57453 6.15494 0.894531 7.83455 0.894531 9.88608M0.894531 9.88608V23.515M0.894531 23.515C0.894531 25.2546 2.14253 25.9984 3.66653 25.1466M0.894531 23.515C0.894531 25.2546 2.14253 25.9864 3.66653 25.1466M3.66653 25.1466L8.38253 22.5192M8.38253 22.5192C8.88653 22.2433 9.70253 22.2433 10.2065 22.5192L14.9225 25.1466C16.4465 25.9864 17.6945 25.2546 17.6945 23.515V9.88608" stroke="#162F55" stroke-width="1.5" stroke-linecap="round" stroke-linejoin="round"/>
</svg>
