<svg width="26" height="26" viewBox="0 0 26 26" fill="none" xmlns="http://www.w3.org/2000/svg">
<path d="M14.068 5.65494H4.732M14.068 5.65494C14.5573 5.65572 15.0417 5.75286 15.4934 5.94079C15.9452 6.12872 16.3555 6.40378 16.7009 6.75025C17.0464 7.09672 17.3202 7.50782 17.5067 7.96007C17.6932 8.41233 17.7888 8.89689 17.788 9.38608V23.015C17.788 24.7546 16.54 25.4984 15.016 24.6466L10.3 22.0192C9.808 21.7433 8.992 21.7433 8.488 22.0192M14.068 5.65494C16.12 5.65494 17.8 7.33455 17.8 9.38608M14.068 5.65494H8.2V4.73115C8.2 2.67962 9.88 1 11.932 1H21.268C23.32 1 25 2.67962 25 4.73115V18.36C25 20.0996 23.752 20.8315 22.228 19.9917L17.8 17.5202V9.38608M4.732 5.65494C3.74319 5.6581 2.79577 6.05222 2.09657 6.75126C1.39737 7.4503 1.00316 8.39749 1 9.38608M4.732 5.65494C2.68 5.65494 1 7.33455 1 9.38608M1 9.38608V23.015M1 23.015C1 24.7546 2.248 25.4984 3.772 24.6466M1 23.015C1 24.7546 2.248 25.4864 3.772 24.6466M3.772 24.6466L8.488 22.0192M8.488 22.0192C8.992 21.7433 9.808 21.7433 10.312 22.0192L15.028 24.6466C16.552 25.4864 17.8 24.7546 17.8 23.015V9.38608" stroke="#162F55" stroke-width="1.5" stroke-linecap="round" stroke-linejoin="round"/>
</svg>
