<svg width="25" height="25" viewBox="0 0 25 25" fill="none" xmlns="http://www.w3.org/2000/svg">
<path d="M12.4473 24.5C19.0747 24.5 24.4473 19.1274 24.4473 12.5C24.4473 5.87258 19.0747 0.5 12.4473 0.5C5.81985 0.5 0.447266 5.87258 0.447266 12.5C0.447266 19.1274 5.81985 24.5 12.4473 24.5Z" fill="#25D366"/>
<path fill-rule="evenodd" clip-rule="evenodd" d="M12.843 19.1762H12.84C11.6458 19.1757 10.4724 18.8761 9.43014 18.3076L5.64746 19.2999L6.65977 15.6023C6.03533 14.5202 5.70675 13.2926 5.70729 12.035C5.70885 8.10075 8.90987 4.8999 12.8429 4.8999C14.7518 4.90073 16.5434 5.64384 17.8906 6.99261C19.2378 8.34131 19.9793 10.1341 19.9785 12.0407C19.977 15.974 16.7772 19.1746 12.843 19.1762ZM9.60539 17.0158L9.82196 17.1444C10.7326 17.6847 11.7764 17.9707 12.8406 17.9711H12.843C16.1119 17.9711 18.7724 15.3105 18.7737 12.0402C18.7743 10.4555 18.158 8.96544 17.0383 7.8444C15.9186 6.72335 14.4295 6.10567 12.8453 6.10512C9.57392 6.10512 6.91335 8.76546 6.91205 12.0354C6.91159 13.1561 7.22515 14.2475 7.81883 15.1917L7.95985 15.4161L7.3607 17.6047L9.60539 17.0158ZM16.1937 13.5769C16.318 13.637 16.402 13.6776 16.4378 13.7375C16.4824 13.8118 16.4824 14.1688 16.3339 14.5853C16.1853 15.0018 15.473 15.3819 15.1304 15.4331C14.8232 15.479 14.4345 15.4981 14.0074 15.3624C13.7485 15.2803 13.4164 15.1706 12.991 14.9868C11.3195 14.2651 10.19 12.6451 9.97649 12.3389C9.96153 12.3175 9.95107 12.3025 9.94524 12.2947L9.9438 12.2928C9.84944 12.1669 9.21722 11.3233 9.21722 10.4503C9.21722 9.62902 9.62064 9.19855 9.80633 9.00041C9.81906 8.98683 9.83076 8.97435 9.84123 8.9629C10.0047 8.7844 10.1978 8.73978 10.3167 8.73978C10.4355 8.73978 10.5545 8.74088 10.6584 8.74609C10.6712 8.74674 10.6845 8.74666 10.6983 8.74658C10.8022 8.74597 10.9318 8.74521 11.0596 9.05215C11.1087 9.17028 11.1806 9.34541 11.2565 9.53012C11.4099 9.90362 11.5794 10.3163 11.6093 10.376C11.6538 10.4653 11.6836 10.5693 11.6241 10.6884C11.6152 10.7062 11.607 10.7231 11.5991 10.7392C11.5544 10.8303 11.5216 10.8973 11.4458 10.9858C11.416 11.0206 11.3853 11.0581 11.3545 11.0956C11.2931 11.1703 11.2318 11.245 11.1784 11.2982C11.0891 11.3871 10.9962 11.4835 11.1002 11.662C11.2042 11.8405 11.562 12.4244 12.0921 12.8971C12.6618 13.4054 13.157 13.6201 13.408 13.729C13.4571 13.7503 13.4968 13.7675 13.5259 13.7821C13.7041 13.8714 13.8081 13.8564 13.9121 13.7375C14.0162 13.6185 14.3578 13.2168 14.4767 13.0384C14.5955 12.8599 14.7144 12.8897 14.8778 12.9491C15.0413 13.0087 15.9179 13.44 16.0962 13.5292C16.131 13.5466 16.1635 13.5624 16.1937 13.5769Z" fill="#FDFDFD"/>
</svg>
